<svg width="59" height="59" viewBox="0 0 59 59" fill="none" xmlns="http://www.w3.org/2000/svg">
<path d="M59 29.6725C59 13.2938 45.8037 0 29.5 0C13.2165 0 0 13.2938 0 29.6725C0 44.4885 10.7951 56.7675 24.8995 58.9797V38.2577H17.3933V29.6725H24.8793V23.1373C24.8793 15.709 29.278 11.5889 36.0174 11.5889C39.2459 11.5889 42.6156 12.1775 42.6156 12.1775V19.484H38.9029C35.2305 19.484 34.1005 21.7774 34.1005 24.1115V29.6725H42.2927L40.9812 38.2577H34.1005V59C48.225 56.7675 59 44.4885 59 29.6725Z" fill="#F389A6"/>
<path d="M40.981 35.4568L42.2925 26.8717H34.1003V21.3106C34.1003 18.9563 35.2505 16.6832 38.9026 16.6832H42.6154V9.37667C42.6154 9.37667 39.2457 8.78809 36.0172 8.78809C29.2778 8.78809 24.879 12.8878 24.879 20.3364V26.8717H17.3931V35.4568H24.879V56.1992C26.3722 56.4427 27.9259 56.5645 29.4796 56.5645C31.0535 56.5645 32.587 56.4427 34.0801 56.1992V35.4568H40.981Z" fill="white"/>
</svg>
