<svg width="63" height="63" viewBox="0 0 63 63" fill="none" xmlns="http://www.w3.org/2000/svg">
<path d="M31.5 63C48.897 63 63 48.897 63 31.5C63 14.103 48.897 0 31.5 0C14.103 0 0 14.103 0 31.5C0 48.897 14.103 63 31.5 63Z" fill="#F389A6"/>
<path d="M41.2815 19.5854C40.0965 19.5854 39.127 20.555 39.127 21.7616C39.127 22.9681 40.0965 23.9377 41.2815 23.9377C42.4881 23.9377 43.4577 22.9681 43.4577 21.7616C43.4361 20.555 42.4881 19.5854 41.2815 19.5854Z" fill="white"/>
<path d="M31.6509 22.3647C26.6308 22.3647 22.5586 26.4369 22.5586 31.4571C22.5586 36.4773 26.6308 40.5494 31.6509 40.5494C36.6711 40.5494 40.7433 36.4773 40.7433 31.4571C40.7433 26.4369 36.6711 22.3647 31.6509 22.3647ZM31.6509 37.296C28.4406 37.296 25.8336 34.689 25.8336 31.4786C25.8336 28.2683 28.4406 25.6613 31.6509 25.6613C34.8613 25.6613 37.4683 28.2683 37.4683 31.4786C37.4683 34.689 34.8613 37.296 31.6509 37.296Z" fill="white"/>
<path d="M38.8686 49.9217H24.1313C18.0122 49.9217 13.0352 44.9446 13.0352 38.8256V24.0883C13.0352 17.9693 18.0122 12.9922 24.1313 12.9922H38.8686C44.9876 12.9922 49.9647 17.9693 49.9647 24.0883V38.8256C49.9647 44.9446 44.9876 49.9217 38.8686 49.9217ZM24.1313 16.4611C19.9298 16.4611 16.504 19.8869 16.504 24.0883V38.8256C16.504 43.0271 19.9298 46.4529 24.1313 46.4529H38.8686C43.07 46.4529 46.4958 43.0271 46.4958 38.8256V24.0883C46.4958 19.8869 43.07 16.4611 38.8686 16.4611H24.1313Z" fill="white"/>
</svg>
