<svg width="53" height="94" viewBox="0 0 53 94" fill="none" xmlns="http://www.w3.org/2000/svg">
<g clip-path="url(#clip0_301_310)">
<path d="M26.6687 25.8882C39.0819 25.8882 49.1816 36.0735 49.1816 48.592C49.1816 52.3495 48.2505 56.0767 46.4795 59.3819L27.9002 93.2675C27.6525 93.7198 27.1812 93.9998 26.6687 93.9998C26.1562 93.9998 25.6849 93.7198 25.4372 93.2675L6.85225 59.3704C5.08829 56.0767 4.15577 52.3509 4.15577 48.592C4.15577 36.0735 14.2541 25.8882 26.6687 25.8882ZM26.6687 59.9447C32.876 59.9447 37.9245 54.852 37.9245 48.5935C37.9245 42.335 32.8746 37.2423 26.6687 37.2423C20.4628 37.2423 15.4129 42.335 15.4129 48.5935C15.4129 54.852 20.4614 59.9447 26.6687 59.9447Z" fill="#F4849F"/>
<path d="M3.1944 29.3702C4.68359 28.4872 6.68246 28.1196 8.65001 28.4298C13.0322 29.1218 17.8528 31.7909 19.5555 35.4923C21.4306 39.5671 14.2822 41.1407 11.1002 40.6252C7.13947 39.982 2.19781 38.4716 1.02326 34.6869C0.29575 32.3351 1.35783 30.4599 3.1944 29.3702Z" fill="#FFCECB"/>
<path d="M17.0127 39.8687C15.4367 40.499 13.5033 40.7718 12.0112 40.7115C11.399 40.0927 10.7114 39.1766 10.0465 38.028C10.0465 38.028 2.50093 36.2735 0.960487 32.0681C1.29363 30.9368 2.10799 30.015 3.19569 29.3689C3.39501 29.2512 3.6043 29.142 3.8207 29.043C8.72677 30.1815 16.2766 34.2347 16.2766 34.2347L17.0127 39.8687Z" fill="#FDB1AD"/>
<path d="M11.0611 15.4951C11.7729 12.7413 13.3832 10.2244 15.5073 8.09657C17.6471 5.9544 20.3137 4.26449 23.1568 2.93209C24.6275 2.24292 26.168 1.67579 27.7369 1.19768C28.5114 0.960778 29.3015 0.76982 30.0959 0.594656C30.9445 0.405134 31.7417 0.383597 32.6074 0.327602C32.8081 0.31468 32.9191 0.581734 32.7013 0.643472C29.0324 1.6801 25.8006 3.73469 22.8223 5.9946C21.1452 7.26813 19.6944 8.79292 18.564 10.4642C17.4564 12.1009 16.7061 13.8971 16.2989 15.7492C16.0611 16.8289 15.9287 17.9575 15.9472 19.0501C15.9686 20.3064 16.2476 21.5455 16.3815 22.7917C16.4484 23.4148 15.6497 24.1342 14.9279 23.7795C14.2018 23.4234 13.5668 22.9439 13.0472 22.3839C13.2308 22.7616 13.4031 23.1392 13.4871 23.5498C13.5753 23.9834 12.8863 24.3782 12.5076 24.0552C11.3558 23.0731 10.9201 21.4048 10.7052 20.0293C10.4703 18.5375 10.681 16.9725 11.0611 15.4951Z" fill="#F4EDDF"/>
<path d="M11.0611 15.4951C11.7729 12.7413 13.3832 10.2244 15.5073 8.09657C17.6471 5.9544 20.3137 4.26449 23.1568 2.93209C24.6275 2.24292 26.168 1.67579 27.7369 1.19768C28.5114 0.960778 29.3015 0.76982 30.0959 0.594656C30.9445 0.405134 31.7417 0.383597 32.6074 0.327602C32.8081 0.31468 32.9191 0.581734 32.7013 0.643472C29.0324 1.6801 25.8006 3.73469 22.8223 5.9946C21.1452 7.26813 19.6944 8.79292 18.564 10.4642C17.4564 12.1009 16.7061 13.8971 16.2989 15.7492C16.0611 16.8289 15.9287 17.9575 15.9472 19.0501C15.9686 20.3064 16.2476 21.5455 16.3815 22.7917C16.4484 23.4148 15.6497 24.1342 14.9279 23.7795C14.2018 23.4234 13.5668 22.9439 13.0472 22.3839C13.2308 22.7616 13.4031 23.1392 13.4871 23.5498C13.5753 23.9834 12.8863 24.3782 12.5076 24.0552C11.3558 23.0731 10.9201 21.4048 10.7052 20.0293C10.4703 18.5375 10.681 16.9725 11.0611 15.4951Z" fill="#FFCECB"/>
<path d="M18.0164 11.347C17.9537 11.4561 17.8882 11.5638 17.8299 11.6729C17.7587 11.8007 17.6932 11.9314 17.6263 12.0606C17.5892 12.1352 17.548 12.2085 17.5124 12.2831C17.4369 12.4368 17.3657 12.5933 17.2945 12.7512C17.2732 12.8014 17.249 12.8503 17.2276 12.8991C17.1507 13.0757 17.0781 13.2537 17.0098 13.4303C16.9984 13.4605 16.9856 13.4892 16.9742 13.5193C16.9002 13.7117 16.8304 13.907 16.7635 14.1008C16.7592 14.1152 16.7535 14.1295 16.7493 14.1453C16.6795 14.3506 16.6154 14.5574 16.5542 14.767C16.5542 14.7699 16.5514 14.7742 16.5514 14.7785C16.4887 14.991 16.4318 15.2064 16.3805 15.4217C16.2253 15.8467 16.0844 16.2746 15.9591 16.7053C15.6516 17.7663 15.5235 18.8503 15.532 19.9358C15.5377 21.1792 15.8708 22.4254 15.7683 23.6659C15.7655 23.7047 15.7555 23.742 15.7456 23.7779C15.5932 23.8497 15.3113 23.8425 14.9796 23.7995C14.964 23.7923 14.9469 23.7865 14.9312 23.7794C14.2051 23.4233 13.5701 22.9437 13.0505 22.3838C13.2256 22.747 13.3922 23.1117 13.4776 23.5066C13.2769 23.4635 13.1003 23.4305 12.975 23.4161C12.5707 23.3702 12.1578 23.307 11.7692 23.1964C11.1527 22.2488 10.8694 21.0586 10.7085 20.0291C10.6217 19.4749 10.596 18.9121 10.6174 18.3464C11.1143 18.813 11.7421 19.1318 12.3956 18.971C13.6912 18.6536 13.8791 16.9192 14.0941 16.0018C14.4585 14.4497 15.1576 12.9034 16.0033 11.4877C16.9913 9.83801 18.2869 8.35198 20.0779 7.1646C21.0446 6.52425 22.091 5.98009 23.2314 5.63263C23.2698 5.62115 23.3068 5.6111 23.3467 5.59961C23.1716 5.73026 22.9979 5.86092 22.8242 5.99158C21.1471 7.2651 19.6963 8.78989 18.5659 10.4611C18.4321 10.6593 18.3025 10.8603 18.1801 11.0613C18.1246 11.1589 18.0705 11.2537 18.0164 11.347Z" fill="#FDB1AD"/>
<path d="M17.4659 11.3599C19.7125 7.04544 24.3438 2.64193 30.0058 2.32606C30.2607 2.31314 30.3959 2.63762 30.124 2.72807C27.6624 3.54503 25.4557 4.55868 23.4825 6.12511C23.2532 6.30889 23.0297 6.49841 22.8119 6.69224C22.8133 6.72957 22.8076 6.7669 22.7905 6.80279C22.4204 7.58242 21.9477 8.32471 21.7356 9.15315C21.522 9.97872 21.5662 10.833 21.6986 11.6557C21.9733 13.3557 22.7051 14.9766 23.1863 16.6292C23.6576 18.2459 23.8298 19.8827 23.2589 21.5209C22.7379 23.0198 21.2629 24.4082 19.5246 24.8576C19.5317 24.9423 19.5317 25.0285 19.5175 25.1204C19.4748 25.4506 19.0647 25.7593 18.6817 25.6889C17.3164 25.4391 16.616 23.7018 16.1632 22.6666C15.6379 21.462 15.4115 20.1583 15.4314 18.859C15.4685 16.2918 16.243 13.7103 17.4659 11.3599Z" fill="#FFDEDB"/>
<path d="M21.7422 5.93408C20.1847 7.77474 19.1297 10.0662 18.6129 12.2457C18.2285 13.8552 18.1559 15.4949 18.2669 17.1202C18.3851 18.8532 18.788 20.5502 18.9204 22.2803C18.9859 23.1217 18.1616 23.5639 17.4483 23.4146C17.3757 23.7219 17.1522 23.9789 16.8703 24.1411C16.5727 23.6328 16.345 23.0901 16.1585 22.6651C15.6331 21.4605 15.4067 20.1568 15.4267 18.8575C15.4665 16.2917 16.2396 13.7088 17.464 11.3584C18.4606 9.44742 19.927 7.51774 21.7422 5.93408Z" fill="#FFCECB"/>
<path opacity="0.5" d="M25.7207 4.57428C25.7592 4.5628 25.7933 4.5628 25.8232 4.5671C25.0103 5.02081 24.2287 5.53481 23.4827 6.12635C23.2535 6.31013 23.0299 6.49965 22.8121 6.69348C22.8135 6.73081 22.8078 6.76814 22.7908 6.80404C22.4206 7.58366 21.9479 8.32595 21.7358 9.1544C21.5222 9.97996 21.5664 10.8342 21.6988 11.6569C21.8169 12.3935 22.0234 13.1157 22.2554 13.8321C22.4605 15.3699 22.6356 16.9104 22.5089 18.4697C22.3565 20.3319 21.7899 22.7727 20.1541 24.1037C19.6728 24.4956 19.0194 24.0333 19.0664 23.5581C19.1689 22.5186 19.7725 21.5666 20.1555 20.5803C20.5911 19.4589 20.7663 18.2615 20.7776 17.0928C20.7947 15.4316 20.4502 13.7848 20.4089 12.1264C20.3705 10.5141 20.5584 9.03666 21.4439 7.58797C22.4049 6.01723 23.8628 5.14859 25.7207 4.57428Z" fill="white"/>
<path d="M20.9936 12.0159C20.6348 7.61094 24.2781 3.74584 28.9563 2.45652C29.419 2.32874 29.6596 2.84705 29.2339 3.05667C27.9911 3.66688 26.7852 4.38907 25.7302 5.24623C25.9808 5.3697 26.1431 5.63676 26.0121 5.93252C25.5224 7.04238 25.0525 8.10915 25.2134 9.30515C25.3473 10.2944 25.9651 11.1975 26.6058 11.9814C28.2972 14.0518 30.4356 15.7561 31.5517 18.1754C32.4928 20.2098 32.7847 23.2996 29.6425 23.8366C28.3327 24.0606 27.0044 23.9457 25.6946 24.2257C24.0901 24.5688 22.5796 25.2437 20.9808 25.6299C20.8213 25.6686 20.6775 25.6758 20.548 25.6615C20.3131 25.8323 20.0668 25.9673 19.8048 26.0362C19.3193 26.1654 18.663 25.8984 18.8011 25.3657C18.9378 24.8388 19.2524 24.5473 19.6468 24.1367C20.1365 23.627 20.575 23.0756 20.9537 22.4999C21.6841 21.3829 22.0927 20.1639 22.1667 18.8961C22.3034 16.5601 21.1815 14.3232 20.9936 12.0159Z" fill="#FFDEDB"/>
<path d="M25.9932 3.69434C24.2135 5.06119 22.6845 7.08132 22.0581 8.96649C21.6011 10.3391 21.406 11.8438 21.9413 13.1948C22.4681 14.5301 23.2098 15.7706 23.6213 17.1547C24.3687 19.6687 24.1196 22.2876 22.7756 24.6652C22.4524 25.241 21.4943 25.2525 21.1341 24.849C20.5262 25.2022 19.531 24.938 19.588 24.1986C19.6079 24.1771 19.6278 24.157 19.6477 24.1354C20.1375 23.6257 20.576 23.0744 20.9547 22.4986C21.6851 21.3816 22.0937 20.1626 22.1677 18.8949C22.1748 18.7786 22.1762 18.6637 22.1762 18.5474C22.1919 16.3377 21.1725 14.2085 20.9931 12.0161C20.7155 8.60037 22.8425 5.51202 25.9932 3.69434Z" fill="#FFCECB"/>
<path opacity="0.5" d="M26.0319 5.57661C24.7719 6.96213 23.8906 8.50559 23.7255 10.3118C23.5005 12.7828 25.6161 14.5674 27.0242 16.4397C28.6088 18.5445 29.4487 21.584 28.5504 24.1254C28.5689 24.0722 25.9749 24.7384 25.6987 24.7959C25.8269 23.8066 26.2212 23.6788 26.3622 22.691C27.1125 17.4906 24.1255 16.3736 22.9951 13.5136C22.4071 12.0261 22.4228 10.4755 22.9795 8.95642C23.1361 8.52856 25.1577 4.94774 25.7457 5.255C25.881 5.32679 25.9863 5.43878 26.0319 5.57661Z" fill="white"/>
<path d="M25.6192 4.74817C27.0571 2.75531 29.3492 1.11135 31.9888 0.676316C32.3347 0.620321 32.3746 1.05823 32.0528 1.1372C30.1693 1.60239 28.6089 2.76967 27.3959 4.14371C27.7291 4.30451 27.9426 4.67638 27.7732 5.03963C27.1952 6.27152 26.4776 7.52495 26.1231 8.8315C26.1231 9.29095 26.1687 9.73029 26.2484 10.1108C26.5645 11.5954 27.6251 12.8904 28.6659 14.0347C29.1414 14.5588 29.6539 15.0714 30.1721 15.5839C30.5565 15.9242 30.921 16.2803 31.2556 16.6651C32.6451 18.0764 33.9293 19.561 34.5173 21.3816C34.6667 21.8439 34.4119 22.2186 33.8823 22.3464C32.6579 22.6422 32.0856 23.798 30.9893 24.1612C30.2789 24.3967 28.2459 23.8554 27.9013 24.9208C27.89 24.9523 27.9013 24.9093 27.9255 24.8834C28.5648 22.322 28.3911 19.7821 26.9432 17.5122C25.4839 15.2221 22.9084 13.7031 23.1049 10.7684C23.2345 8.77981 24.4204 6.41223 25.6192 4.74817Z" fill="#FFDEDB"/>
<path d="M25.619 4.74796C26.9188 2.94606 28.9191 1.43132 31.2426 0.836914C30.4709 1.10971 29.0472 1.88216 28.8479 2.04296C27.0341 3.50601 25.8738 4.60582 24.9385 6.17512C24.2437 7.34096 23.6272 8.47522 23.4578 9.78608C23.2969 11.0352 23.4963 12.0891 24.117 13.2061C26.1771 16.9204 33.3824 18.4869 31.0461 23.7791C31.4462 22.8731 28.1973 24.2142 28.1347 24.2328C28.0564 23.7217 28.2144 23.1919 28.2628 22.6578C28.2656 22.6506 28.2656 22.6434 28.2656 22.6377C28.2656 22.6334 28.2656 22.6291 28.2656 22.6248C28.3482 20.8444 27.9624 19.11 26.9416 17.5105C25.4823 15.2205 22.9068 13.7014 23.1033 10.7667C23.2343 8.77961 24.4202 6.41202 25.619 4.74796Z" fill="#FFCECB"/>
<path d="M27.6333 3.88232C27.5522 3.96847 27.4725 4.05605 27.3956 4.14363C27.6148 4.24988 27.7814 4.44945 27.8213 4.67487C27.5579 5.19893 27.3429 5.73447 27.1678 6.28006C26.7578 7.11281 26.3591 7.95992 26.1228 8.83C26.1228 9.28944 26.1684 9.72879 26.2481 10.1093C26.3235 10.461 26.4417 10.8027 26.5898 11.1358C27.0482 12.1567 27.0468 13.2909 27.854 14.2113C28.3936 14.8287 29.2307 15.3183 29.9041 15.8294C31.2894 16.8804 33.3481 18.1123 33.0961 19.9845C32.1621 17.838 29.5382 17.2006 27.639 15.8682C25.7085 14.5142 24.0741 12.8875 24.0527 10.5802C24.0371 8.84723 25.0023 6.84289 26.0374 5.35543C26.4545 4.75527 27.0439 4.30875 27.6333 3.88232Z" fill="white"/>
<path d="M26.3677 5.5822C27.8327 3.17297 29.571 1.53045 32.2618 0.251175C32.4868 0.144928 32.6861 0.376087 32.4939 0.5211C32.1579 0.773796 31.9814 1.1313 31.6867 1.41559C31.4033 1.68695 31.0973 1.93677 30.794 2.18947C30.3612 2.55128 29.927 2.90879 29.5013 3.27778C29.5525 3.37111 29.5767 3.48023 29.5554 3.60227C29.3475 4.77529 28.8122 5.82771 28.3267 6.93039C27.79 8.14936 27.8626 9.16301 28.6955 10.2183C30.0352 11.9154 32.0696 13.1056 33.882 14.3749C35.6744 15.6297 37.3359 17.044 38.3069 18.9062C39.2593 20.7353 39.3803 23.1604 37.6007 24.6808C37.1651 25.0527 36.3948 24.9177 36.0233 24.5373C35.5463 24.7986 34.8544 24.7067 34.517 24.3233C34.4187 24.5588 34.3006 24.7842 34.1568 24.991C33.7852 25.5251 32.9082 25.1992 32.8142 24.6895C32.6904 24.0261 32.911 23.3599 33.0221 22.698C33.1246 22.0835 33.1744 21.469 33.1317 20.8531C33.0378 19.4991 32.269 18.4711 31.1941 17.5637C29.339 15.9987 26.634 14.7022 25.5149 12.6405C24.2421 10.2901 24.9995 7.83062 26.3677 5.5822Z" fill="#FFDEDB"/>
<path d="M25.5159 12.6363C24.2431 10.2888 24.9991 7.83074 26.3673 5.58089C26.4584 5.43013 26.5509 5.28225 26.6449 5.13867C26.0598 6.10351 25.6127 7.13296 25.3237 8.18825C24.7998 10.1007 25.3479 12.408 26.9467 13.7763C28.7377 15.3082 31.9339 16.846 33.5584 18.5344C35.5886 20.6436 35.2227 22.1641 34.1862 24.6278C34.0908 24.6365 32.9419 24.7757 32.8437 24.7886C32.8309 24.7556 32.8209 24.7226 32.8138 24.6881C32.6899 24.0248 32.9106 23.3586 33.0216 22.6967C33.1242 22.0822 33.174 21.4677 33.1313 20.8518C33.0373 19.4978 32.2685 18.4698 31.1936 17.5624C29.34 15.9945 26.6335 14.698 25.5159 12.6363Z" fill="#FDB1AD"/>
<path opacity="0.5" d="M29.3898 3.47172C29.4453 3.4387 29.5094 3.44731 29.5592 3.46023C29.5649 3.50474 29.5649 3.55069 29.5563 3.60094C29.5264 3.76749 29.4894 3.92973 29.4481 4.09197C28.7705 4.93334 28.1782 5.7345 27.9134 6.76969C27.6386 7.85226 27.6785 8.94345 27.8935 10.0188C28.2836 11.9672 29.8254 13.179 31.6734 14.1165C36.3061 16.4669 40.1928 17.6801 38.9812 23.0901C38.3263 22.9523 37.5532 22.9882 36.9396 23.182C37.1575 18.4612 31.9268 16.8502 28.7263 14.2142C27.0236 12.81 26.3516 11.1818 26.4285 9.12579C26.521 6.71082 27.9874 4.27432 29.3898 3.47172Z" fill="white"/>
<path d="M31.8258 0.64041C32.2002 0.357563 32.5604 0.13789 33.0274 0.0115422C33.2666 -0.0545033 33.5157 0.163734 33.3335 0.364742C32.764 0.989303 32.102 1.52628 31.5695 2.1853C30.9089 3.00369 30.4263 3.92689 30.039 4.86445C29.4083 6.39355 29.1962 8.15381 29.8525 9.66711C30.9174 12.1223 34.2105 12.7497 36.8315 13.2637C39.8056 13.8466 43.0203 14.3276 45.2071 16.3162C48.0118 18.8661 46.4956 23.4462 44.1023 25.9488C43.9016 26.1598 43.6781 26.3149 43.4232 26.4671C42.5007 27.0127 41.7091 25.7018 40.9061 25.4793C40.4534 25.3529 37.8423 25.3271 37.6928 25.8813C38.1954 24.0076 38.7435 22.0707 38.1114 20.1928C36.9326 16.6909 32.5846 15.9343 29.6304 13.9471C24.8639 10.7396 27.9234 3.59236 31.8258 0.64041Z" fill="#FFDEDB"/>
<path d="M29.8862 2.89306C29.8847 2.8945 29.8819 2.89593 29.8819 2.89737C29.8833 2.89593 29.8833 2.89306 29.8847 2.89162C29.8975 2.88157 29.8975 2.88301 29.8862 2.89306Z" fill="#EFDAA2"/>
<path d="M28.095 12.4252C26.4165 9.89972 27.2963 6.32178 29.1485 3.54356C29.3834 3.3124 29.6283 3.09416 29.8817 2.89746C29.3379 3.7819 28.7599 4.65197 28.4708 5.62686C27.9313 7.43594 27.5625 9.54365 28.4936 11.258C28.5321 11.3269 28.5719 11.3958 28.6146 11.4633C30.0099 13.7246 32.9939 14.2975 35.427 15.3241C37.1611 16.0534 38.851 16.9723 39.9843 18.3607C40.9012 19.4835 41.1731 20.8719 41.1233 22.2488C41.0862 23.2926 41.0051 24.714 39.9573 25.4061C39.2952 25.3989 38.478 25.4549 38.0253 25.6214C37.947 25.5697 37.8772 25.5037 37.8174 25.4219C38.2787 23.6917 38.6944 21.9186 38.1136 20.1928C37.3476 17.9228 35.2505 16.8072 33.068 15.7591C32.0515 15.2394 30.9794 14.7828 30.007 14.1855C30.007 14.1855 30.0056 14.1841 30.0042 14.1841C29.8789 14.108 29.7536 14.029 29.6326 13.9457C29.0674 13.5667 28.542 13.034 28.095 12.4252Z" fill="#FFCECB"/>
<path opacity="0.5" d="M32.3814 1.31787C32.0966 1.59498 31.819 1.87639 31.5685 2.18508C30.9079 3.00347 30.4252 3.92667 30.038 4.86423C29.4073 6.39333 29.1952 8.15358 29.8515 9.66689C30.9164 12.1221 34.2094 12.7495 36.8304 13.2635C38.2613 13.5435 39.8757 13.8364 41.4048 14.2901C42.8199 14.7309 44.1369 15.3425 45.2075 16.3159C46.9273 17.8795 46.9971 20.2614 46.3108 22.2931C45.3342 25.1876 44.0998 25.5049 41.2624 26.7468C44.087 24.8344 45.7698 20.8329 43.9945 18.0604C42.2861 15.3927 38.5503 14.6347 35.4423 13.6813C31.5514 12.4867 28.5032 11.3022 28.8634 7.22607C28.9574 6.15068 29.3916 4.86423 29.9526 3.88647C30.7513 2.49664 31.829 1.59928 32.3814 1.31787Z" fill="white"/>
<path d="M1.64377 23.7937C2.49229 23.2855 6.78332 27.1204 6.51281 28.1269C5.96754 30.1614 6.05865 28.4585 7.53787 29.8656C8.30382 30.5935 9.19221 31.2281 10.203 31.6732C11.2466 32.1312 12.9138 32.5491 13.5815 33.4407C14.2492 34.3337 14.1566 35.366 15.26 36.1155C15.3924 36.2045 12.6461 36.9152 12.3542 36.9282C7.18622 37.1622 1.43875 33.7666 0.231456 29.0142C-0.241212 27.1592 -0.0931454 24.8361 1.64377 23.7937Z" fill="#F4EDDF"/>
<path d="M1.64377 23.7934C2.49229 23.2851 6.41885 26.8947 6.73064 27.8782C7.16344 29.2479 12.9138 32.5502 13.5815 33.4418C14.2492 34.3348 14.1566 35.3672 15.26 36.1166C15.3924 36.2057 12.6461 36.9164 12.3542 36.9293C7.18622 37.1633 1.43875 33.7677 0.231456 29.0153C-0.241212 27.1589 -0.0931454 24.8358 1.64377 23.7934Z" fill="#FFDEDB"/>
<path d="M1.64377 23.7934C2.49229 23.2851 6.41885 26.8947 6.73064 27.8782C7.16344 29.2479 12.9138 32.5502 13.5815 33.4418C14.2492 34.3348 14.1566 35.3672 15.26 36.1166C15.3924 36.2057 12.6461 36.9164 12.3542 36.9293C7.18622 37.1633 1.43875 33.7677 0.231456 29.0153C-0.241212 27.1589 -0.0931454 24.8358 1.64377 23.7934Z" fill="#FFDEDB"/>
<path d="M2.17766 27.9549C1.85591 27.0619 1.48574 25.0762 1.93279 23.7524C3.15005 23.8946 6.44875 26.9815 6.73207 27.8788C6.84311 28.232 7.31151 28.7173 7.95502 29.2543C8.22552 29.6247 8.50742 29.9894 8.80355 30.3455C9.02422 30.6126 9.48977 30.759 10.0792 30.848C11.6495 31.9536 13.2483 32.9974 13.5815 33.4425C14.2492 34.3355 14.1566 35.3678 15.26 36.1173C15.3924 36.2063 12.6461 36.917 12.3542 36.9299C10.0536 37.0348 7.63896 36.4174 5.56037 35.2846C6.34055 34.7605 6.45729 33.2989 5.81663 32.6542C4.79726 31.6276 2.95215 30.0971 2.17766 27.9549Z" fill="#FFCECB"/>
<path d="M3.32124 25.811C3.32124 25.811 2.21929 31.1105 9.35345 34.2347C16.4876 37.3604 9.25948 30.5319 9.25948 30.5319L3.32124 25.811Z" fill="#FDB1AD"/>
<path d="M7.9361 19.6111C8.85866 19.4948 12.2542 20.8128 13.0272 23.7016C13.6309 25.9586 13.2152 27.5092 12.8493 29.7835C12.6428 31.0628 12.0976 32.4167 13.7049 32.981C14.7869 33.3615 14.048 34.8604 12.9675 34.4713C11.2975 33.8711 9.6061 33.3399 8.0742 32.4957C5.10295 30.8575 3.22509 27.65 3.36176 24.4855C3.42867 22.9492 6.28746 19.8193 7.9361 19.6111Z" fill="#F4EDDF"/>
<path d="M7.9361 19.6111C8.85866 19.4948 12.2542 20.8128 13.0272 23.7016C13.6309 25.9586 13.2152 27.5092 12.8493 29.7835C12.6428 31.0628 12.0976 32.4167 13.7049 32.981C14.7869 33.3615 14.048 34.8604 12.9675 34.4713C11.2975 33.8711 9.6061 33.3399 8.0742 32.4957C5.10295 30.8575 3.22509 27.65 3.36176 24.4855C3.42867 22.9492 6.28746 19.8193 7.9361 19.6111Z" fill="#FFDEDB"/>
<path d="M7.16491 28.4053C7.15637 26.5316 7.1222 25.6429 8.08035 23.1202C8.41634 22.2344 9.2492 21.1058 10.1148 20.2803C11.3079 20.9336 12.5878 22.0649 13.0263 23.7003C13.6299 25.9573 13.2142 27.508 12.8483 29.7822C12.6419 31.0615 12.0966 32.4154 13.704 32.9797C14.786 33.3602 14.0471 34.8591 12.9665 34.47C11.2965 33.8699 9.60513 33.3386 8.07323 32.4944C6.52567 31.643 5.27709 30.3637 4.45277 28.8877C5.86792 30.157 7.1706 29.4707 7.16491 28.4053Z" fill="#FFCECB"/>
<path d="M11.2212 22.2559C11.2212 22.2559 6.80493 25.0944 10.1876 30.4039C13.0692 34.9237 11.2212 22.2559 11.2212 22.2559Z" fill="#FDB1AD"/>
<path d="M14.6725 19.2481C15.1551 19.2208 16.67 20.2531 17.7178 21.6731C18.3727 22.5604 17.9969 23.8138 17.6409 24.7801C17.4259 25.3702 17.1298 25.9302 16.8166 26.4858C16.623 26.829 16.4607 27.1951 16.2073 27.5052C16.3468 28.1571 16.3439 28.8678 15.8214 29.3286C15.7033 29.432 15.5538 29.5182 15.3915 29.5828C15.2306 29.9805 14.7736 30.2145 14.2867 30.249C14.7437 30.8735 15.1822 31.5038 15.232 32.2662C15.2605 32.6998 14.748 33.1751 14.2369 32.9425C12.9199 32.3409 12.154 31.6273 11.4678 30.5017C10.3516 28.6725 9.57851 25.8914 10.2961 23.844C11.1033 21.5338 13.3371 19.3213 14.6725 19.2481Z" fill="#F4EDDF"/>
<path d="M14.6725 19.2481C15.1551 19.2208 16.67 20.2531 17.7178 21.6731C18.3727 22.5604 17.9969 23.8138 17.6409 24.7801C17.4259 25.3702 17.1298 25.9302 16.8166 26.4858C16.623 26.829 16.4607 27.1951 16.2073 27.5052C16.3468 28.1571 16.3439 28.8678 15.8214 29.3286C15.7033 29.432 15.5538 29.5182 15.3915 29.5828C15.2306 29.9805 14.7736 30.2145 14.2867 30.249C14.7437 30.8735 15.1822 31.5038 15.232 32.2662C15.2605 32.6998 14.748 33.1751 14.2369 32.9425C12.9199 32.3409 12.154 31.6273 11.4678 30.5017C10.3516 28.6725 9.57851 25.8914 10.2961 23.844C11.1033 21.5338 13.3371 19.3213 14.6725 19.2481Z" fill="#FFDEDB"/>
<path d="M10.4309 23.4892C10.468 23.4016 10.5064 23.3125 10.5463 23.225C10.5491 23.2207 10.5505 23.2164 10.552 23.212C10.8581 24.1754 11.5186 25.0283 12.7857 24.8014C14.7974 24.4382 15.7413 22.1539 16.3364 20.2041C16.8077 20.6047 17.3003 21.1072 17.7174 21.6729C18.2684 22.4195 18.0691 23.515 18.089 24.3822C18.1118 25.3269 18.146 26.2731 18.1047 27.2193C18.0235 29.0442 17.7174 31.1332 16.1613 32.513C15.7627 32.8662 14.7262 33.1648 14.2393 32.9423C12.9224 32.3407 12.1565 31.6271 11.4702 30.5015C10.3541 28.6723 9.58099 25.8912 10.2985 23.8438C10.3313 23.749 10.3669 23.6528 10.4053 23.5581C10.4124 23.5351 10.4224 23.5121 10.4309 23.4892Z" fill="#FFCECB"/>
<path d="M16.2973 26.1958C17.0504 27.4449 17.4889 28.7572 17.6797 30.0523C17.3978 30.9669 16.9337 31.8269 16.1606 32.5132C15.762 32.8664 14.7255 33.165 14.2386 32.9425C13.5908 32.6467 13.0769 32.3237 12.6398 31.9375C12.7452 32.3797 13.0399 32.7472 13.7047 32.9813C14.3525 33.2081 14.3482 33.8356 14.008 34.2218C14.2913 34.8952 14.4678 35.5786 15.2594 36.117C15.3918 36.206 12.8263 37.0503 12.5344 37.0632C11.5307 37.1091 10.4558 37.0445 9.31404 36.6726C5.84875 29.1363 16.2973 26.1958 16.2973 26.1958Z" fill="#FDB1AD"/>
<path d="M15.901 24.404C16.2142 23.1865 17.749 20.6308 19.4318 20.2747C19.8888 20.1785 21.1829 21.2209 21.8549 22.3336C24.7265 27.0975 19.6795 32.9339 16.6001 29.4938C15.5465 28.3151 15.5366 25.8197 15.901 24.404Z" fill="#FFDEDB"/>
<path d="M14.2736 34.8261C15.1464 34.8447 15.918 35.1692 15.3115 36.0623C15.2688 36.124 15.2233 36.1829 15.1763 36.2403C15.2361 36.2848 15.2959 36.3379 15.3514 36.3997C16.1259 37.2683 17.6706 37.5885 18.8095 37.9575C20.3785 38.4643 21.9944 38.8577 23.6373 39.1563C27.0727 39.7823 30.6262 39.9431 34.1428 39.5727C37.2835 39.2425 40.3045 38.3796 43.1619 37.1491C45.6491 36.078 47.9398 34.5762 48.8567 32.1943C49.0076 31.8023 49.3664 31.6674 49.7152 31.709C51.3994 31.3788 52.6836 32.7011 52.927 34.0206C53.9692 39.6689 43.5805 43.2942 38.7798 44.0739C33.0736 44.9985 27.0072 45.1622 21.395 43.9145C17.7546 43.1033 14.0572 41.432 12.1936 38.4499C11.5131 37.3588 11.4191 35.7521 12.8556 35.0673C13.1788 34.9136 13.744 34.8131 14.2736 34.8261Z" fill="#FFDEDB"/>
<path d="M12.8563 35.0675C13.1781 34.9139 13.7447 34.8148 14.2729 34.8263C15.1456 34.8449 15.9172 35.1694 15.3107 36.0625C15.268 36.1242 15.2225 36.1831 15.1755 36.2405C15.2353 36.285 15.2951 36.3381 15.3506 36.3999C16.1251 37.2685 17.6698 37.5887 18.8088 37.9577C20.3777 38.4645 21.9936 38.8579 23.6365 39.1566C27.0719 39.7826 30.6255 39.9434 34.142 39.5729C37.2827 39.2427 40.3038 38.3798 43.1611 37.1494C45.6483 36.0783 47.9391 34.5765 48.8559 32.1945C49.0068 31.8025 49.3656 31.6676 49.7144 31.7092C50.3052 31.5944 50.8448 31.6848 51.309 31.903C51.3773 32.4946 51.2748 33.1996 50.9559 34.0452C49.4852 37.929 43.1213 40.6799 38.0799 41.2772C33.6224 41.8056 30.0247 41.83 25.1613 41.6778C23.8857 41.6376 21.7331 41.7539 21.1465 42.9355C21.0212 43.1868 20.9671 43.4912 20.9671 43.8128C17.4677 42.9685 13.9839 41.3145 12.1943 38.4502C11.5123 37.359 11.4184 35.7509 12.8563 35.0675Z" fill="#FFCECB"/>
<path d="M15.3119 36.0608C15.2692 36.1225 15.2236 36.1814 15.1766 36.2388C15.2364 36.2833 15.2962 36.3364 15.3518 36.3982C16.1262 37.2668 17.671 37.587 18.8099 37.956C20.3788 38.4628 21.9947 38.8562 23.6377 39.1549C27.0731 39.7809 30.6266 39.9417 34.1431 39.5712C35.3305 39.4463 36.4994 39.2453 37.6511 38.9768C39.3795 39.2367 40.4473 39.4004 40.4473 39.4004C40.4473 39.4004 36.3926 42.1901 23.4412 40.6352C12.3122 39.2999 11.6103 36.1211 12.2766 35.4692C13.0895 35.5439 14.1729 35.6659 15.4429 35.8239C15.4101 35.9 15.3688 35.9775 15.3119 36.0608Z" fill="#FDB1AD"/>
<path d="M16.3906 38.154C13.9503 37.6013 8.34951 36.7484 10.6274 33.2466C10.8709 32.8718 11.0488 32.6622 11.4133 32.3908C15.4552 29.3987 21.0802 31.4705 25.2858 32.5904C29.5911 33.7362 34.053 34.7039 38.6116 33.8611C40.9693 33.426 43.1732 32.4253 44.9827 30.9996C46.4676 29.8294 47.8301 26.8502 50.2945 27.5724C51.274 27.8595 51.6399 28.6636 51.7979 29.5006C52.1766 31.5021 50.9665 33.5897 49.5499 35.1203C47.9226 36.8776 45.6575 37.9961 43.27 38.7269C36.3052 40.8562 29.6124 40.7068 22.5723 39.5525C20.468 39.2093 18.4578 38.6221 16.3906 38.154Z" fill="#FFDEDB"/>
<path d="M44.9825 31.0012C46.0574 30.1541 47.0682 28.3608 48.4777 27.7075C48.4834 27.8138 48.4848 27.92 48.482 28.0248C48.4478 29.0485 47.9851 30.0765 47.39 31.0213C46.513 32.4183 45.3399 33.5885 43.8151 34.4643C39.843 36.7472 34.9853 37.0688 30.4864 36.8836C28.0192 36.7816 25.5419 36.1628 23.106 35.8469C22.0738 35.712 21.0516 35.5282 20.018 35.4004C18.6583 35.2324 16.2096 34.8835 15.5946 36.2188C15.3255 36.8046 16.0758 37.6991 17.33 38.3753C17.0168 38.2992 16.7036 38.226 16.389 38.1542C13.9488 37.6014 8.34793 36.7486 10.6258 33.2467C10.8693 32.872 11.0473 32.6624 11.4117 32.391C13.2526 31.0285 15.4194 30.7183 17.6333 30.8878C20.0194 31.4506 22.4924 31.8268 24.8543 32.4743C24.9995 32.5145 25.1433 32.5533 25.2857 32.5906C29.5909 33.7363 34.0528 34.704 38.6115 33.8612C38.7154 33.8426 38.8236 33.821 38.9318 33.7981C41.1684 33.3343 43.257 32.3623 44.9825 31.0012Z" fill="#FFCECB"/>
<path d="M10.6272 33.2468C10.8706 32.8721 11.0486 32.6625 11.413 32.3911C13.2539 31.0286 15.4208 30.7184 17.6346 30.8879C20.0207 31.4507 22.4937 31.8268 24.8556 32.4744C25.0008 32.5146 25.1446 32.5533 25.287 32.5907C29.5922 33.7364 34.0541 34.7041 38.6128 33.8613C38.7167 33.8427 38.8249 33.8211 38.9331 33.7982C39.8372 33.6101 40.7156 33.3387 41.557 32.9927L43.0049 33.2626C43.0049 33.2626 39.1666 36.6166 28.8462 35.5972C17.7115 34.4974 16.107 31.801 10.2442 33.9949C10.3296 33.7594 10.4549 33.511 10.6272 33.2468Z" fill="#FDB1AD"/>
<path d="M16.6668 26.6447C19.9157 25.7301 23.5476 27.1946 26.711 27.779C29.5898 28.3102 32.8543 28.3289 35.696 27.4229C38.0835 26.6605 40.4127 25.7545 42.7874 24.9591C44.204 24.4839 46.4976 23.6152 47.9569 24.4164C48.5007 24.7165 49.4005 25.9828 48.8154 28.046C47.7932 31.6484 41.6855 35.2752 33.243 35.3283C30.8269 35.3441 27.3147 34.8315 25.0012 34.3319C20.4026 33.3369 16.7822 31.6269 11.9117 32.3749C11.2739 32.474 10.7642 31.9743 10.8368 31.4345C11.1586 29.0525 14.3007 27.3109 16.6668 26.6447Z" fill="#FFDEDB"/>
<path d="M16.6668 26.6447C19.0216 25.9814 21.5786 26.5687 24.0117 27.1645C24.8061 27.5134 25.5806 27.8407 26.3223 28.0777C29.7235 29.1617 33.1205 29.7374 36.5815 28.2988C38.5348 27.4875 40.7216 26.8716 41.9488 25.2434C42.2279 25.1472 42.5069 25.051 42.786 24.9577C43.7199 24.6447 45.0368 24.1623 46.2441 24.0991C46.2185 24.1451 46.1957 24.1896 46.1673 24.2384C43.7897 28.2442 39.3976 30.8745 34.4203 31.7346C32.0015 32.1524 27.1979 31.9126 24.5399 31.2737C20.4311 30.2859 15.1192 29.9284 18.5874 32.7066C16.4888 32.2443 14.3561 31.9988 11.9088 32.3735C11.271 32.4726 10.7613 31.9729 10.8339 31.4331C11.1585 29.0525 14.3006 27.3109 16.6668 26.6447Z" fill="#FFCECB"/>
<path d="M18.3005 26.3751C20.1784 26.2516 22.1317 26.7039 24.0124 27.1648C24.8068 27.5137 25.5813 27.841 26.323 28.0779C29.7242 29.1619 33.1212 29.7377 36.5822 28.299C37.3923 27.9631 38.2422 27.6587 39.0495 27.3026C40.5742 27.5625 41.5381 27.742 41.5381 27.742C41.3345 27.8611 37.6856 32.1814 27.3581 30.9581C19.4751 30.0248 15.5371 27.8037 18.3005 26.3751Z" fill="#FDB1AD"/>
<path d="M19.0042 26.675C19.2192 25.9428 20.4422 25.1402 20.9974 24.8358C21.9484 24.3132 22.955 23.8437 23.9701 23.4359C26.2053 22.54 28.6355 22.0361 31.0473 21.7834C33.3978 21.5364 40.2344 20.9248 44.766 23.067C46.436 23.8595 42.9836 28.6736 34.7304 30.2918C31.7506 30.8761 28.6213 30.5603 25.7127 29.8811C21.1925 28.8258 19.1879 27.6471 19.0014 27.0799C18.9587 26.9493 18.9629 26.8143 19.0042 26.675Z" fill="#FFDEDB"/>
<path d="M19.0021 27.0788C18.9594 26.9496 18.9637 26.8147 19.005 26.6754C19.2199 25.9431 20.4429 25.1405 20.9981 24.8362C21.9492 24.3135 22.9557 23.844 23.9708 23.4363C24.7083 23.1405 25.4671 22.8921 26.2373 22.6768C25.413 24.3437 25.1397 26.0824 27.083 27.287C28.9794 28.4629 31.7314 28.6367 34.0178 28.4845C36.9877 28.2863 40.5227 27.1162 42.802 25.3229C43.3673 24.8778 44.015 24.2863 44.4763 23.7565C44.6386 23.5698 44.7867 23.3745 44.9305 23.175C46.1677 24.2188 42.6753 28.7357 34.7311 30.2921C31.7513 30.8765 28.622 30.5606 25.7134 29.8815C21.1932 28.8247 19.1886 27.646 19.0021 27.0788Z" fill="#FFCECB"/>
<path opacity="0.7" d="M34.5843 24.6994C34.6114 24.6606 34.6384 24.6218 34.6697 24.5831C35.4115 23.634 36.7782 23.3225 37.9471 23.0396C38.6276 22.8745 43.7045 22.0906 42.567 23.8953C41.4665 25.6398 37.8887 26.8286 35.7859 26.5099C34.6284 26.3347 33.9422 25.6412 34.5843 24.6994Z" fill="white"/>
<path opacity="0.7" d="M30.897 33.3183C32.3706 33.2939 33.9366 32.9982 35.376 32.6981C36.8851 32.3822 38.3601 31.9974 39.788 31.4389C42.7522 30.2802 44.0492 28.9005 45.7419 26.4238C46.6317 25.1215 48.2049 25.2708 48.1551 27.1948C48.044 31.5093 41.2089 33.5653 37.6439 33.9472C35.9668 34.1267 33.0938 34.2143 30.8956 33.6701C30.6778 33.6184 30.6678 33.3226 30.897 33.3183Z" fill="white"/>
<path opacity="0.5" d="M31.2026 38.7359C34.7689 38.3985 38.4805 37.6979 41.839 36.509C48.7625 34.0582 49.6608 28.8994 50.0936 29.3345C51.9458 31.201 48.4236 35.5384 44.9441 37.1307C40.915 38.9714 35.5762 39.1997 31.1954 39.1322C30.9378 39.1279 30.9491 38.7589 31.2026 38.7359Z" fill="white"/>
<path opacity="0.5" d="M19.0958 20.9741C19.95 20.6611 21.5389 23.3991 21.0634 23.9447C20.5864 24.4903 18.6132 24.9109 18.3526 24.5405C18.0921 24.1701 18.4338 21.2167 19.0958 20.9741Z" fill="white"/>
<path opacity="0.5" d="M8.06058 20.1354C8.63005 20.1067 6.78779 24.8591 5.52782 24.4269C4.26785 23.9933 6.55715 20.2129 8.06058 20.1354Z" fill="white"/>
<path opacity="0.5" d="M14.5275 20.016C15.2394 20.095 13.8015 24.1425 12.5671 23.6012C11.3328 23.0599 13.3615 19.8868 14.5275 20.016Z" fill="white"/>
<path d="M30.8139 26.5029C30.8623 26.3881 30.7768 26.4096 30.717 26.4067C30.7355 26.4527 30.7683 26.4843 30.8139 26.5029Z" fill="#F18F8D"/>
<path d="M23.0268 33.0815C22.8958 33.0902 22.772 33.1261 22.6509 33.1677C22.6638 33.2337 22.7008 33.2352 22.7321 33.2352C22.8688 33.238 22.9328 33.2768 22.8958 33.4405C22.8659 33.5711 22.9585 33.6989 23.0382 33.7851C23.1749 33.9315 23.219 34.1268 23.3457 34.2747C23.4098 34.3479 23.4098 34.4699 23.5294 34.5058C23.5593 34.5144 23.5906 34.5733 23.592 34.6121C23.6119 34.9782 23.8397 35.2079 24.106 35.4104C24.1843 35.4692 24.2426 35.5425 24.2683 35.6343C24.3281 35.8454 24.5174 35.9 24.6769 35.9861C24.7253 36.012 24.7395 35.9473 24.748 35.9057C24.7466 35.8885 24.7452 35.8712 24.7438 35.854C24.7281 35.8368 24.711 35.821 24.6954 35.8038C24.5046 35.5109 24.2839 35.2366 24.1401 34.9136C24.1131 34.8518 24.0704 34.7944 24.0718 34.7226C23.8753 34.4168 23.7287 34.0808 23.4995 33.7966C23.3571 33.6487 23.2959 33.452 23.1891 33.2826C23.145 33.238 23.1193 33.1806 23.0852 33.1289C23.0681 33.1117 23.0496 33.0973 23.0311 33.0844L23.0268 33.0815Z" fill="#FFD95E"/>
<path d="M39.6825 32.0782C39.5715 31.8872 39.3565 31.8126 39.2099 31.6546C39.0718 31.5067 38.8895 31.4019 38.7358 31.267C38.5735 31.1263 38.387 31.1521 38.2005 31.1665C38.1293 31.1722 38.0866 31.2339 38.0453 31.2914C37.9414 31.4407 37.8616 31.6001 37.8317 31.781C37.9072 31.9561 38.0168 32.0882 38.1962 32.1801C38.4382 32.305 38.6048 32.5333 38.7984 32.72C39.0205 32.9325 39.2711 33.1105 39.4832 33.3345C39.5587 33.4149 39.6498 33.4709 39.768 33.4508C39.768 33.4134 39.7737 33.3876 39.7665 33.3819C39.5701 33.2555 39.58 33.01 39.4604 32.8391C39.4448 32.8176 39.4434 32.786 39.469 32.7717C39.4889 32.7602 39.5217 32.7501 39.5387 32.7587C39.5829 32.7817 39.6284 32.8104 39.6612 32.8477C39.7808 32.9827 39.9559 33.0157 40.1068 33.0875C40.2549 33.1579 40.3503 33.089 40.457 32.8923C40.4399 32.875 40.4229 32.8578 40.4072 32.8406C40.4058 32.8233 40.4058 32.8061 40.4044 32.7889C40.3873 32.7716 40.3702 32.7544 40.3531 32.7386L40.3517 32.7372C40.3346 32.72 40.3175 32.7042 40.3018 32.6869C40.1666 32.5118 40.01 32.3596 39.8349 32.2246C39.8178 32.2088 39.8021 32.1916 39.785 32.1758L39.7836 32.1744C39.7665 32.1586 39.7509 32.1413 39.7338 32.1256L39.7309 32.1241C39.7153 32.1112 39.6982 32.094 39.6825 32.0782Z" fill="#FFE162"/>
<path d="M9.55507 31.8254C9.55507 31.9417 9.54795 32.0666 9.72876 31.9876C9.94089 32.0996 10.1174 32.0292 10.294 31.8943C10.3566 31.8469 10.4506 31.8412 10.5303 31.8167C10.5787 31.7952 10.6115 31.7607 10.6314 31.7119C10.6285 31.6416 10.6285 31.5612 10.6926 31.5253C10.8321 31.4506 10.8834 31.3171 10.9375 31.1864C11.0685 30.8691 11.3532 30.7672 11.6394 30.671C11.7063 30.648 11.7604 30.6179 11.8159 30.5777C11.9198 30.5016 12.0351 30.4528 12.1647 30.5145C12.2131 30.5375 12.2387 30.5131 12.2772 30.4944C12.3669 30.4513 12.4651 30.391 12.5619 30.437C12.6431 30.4757 12.653 30.4513 12.6843 30.3838C12.757 30.2216 12.747 30.2001 12.5662 30.1943C12.3284 30.1857 12.1177 30.2977 11.907 30.3738C11.665 30.4614 11.413 30.5303 11.1809 30.6609C10.9531 30.7902 10.7125 30.9007 10.4919 31.0457C10.4378 31.0802 10.3837 31.0931 10.3239 31.0931C10.0491 31.2798 9.80991 31.5052 9.60632 31.7694C9.58924 31.7909 9.575 31.8124 9.55507 31.8254Z" fill="#96C787"/>
<path d="M22.8945 28.8909C22.9102 28.8938 22.9259 28.8952 22.9415 28.8952C22.9387 28.7416 22.9273 28.5865 23.0341 28.4458C23.1793 28.5104 23.3145 28.5707 23.3046 28.7674C23.3003 28.8478 23.4597 28.9254 23.3088 29.0101C23.3046 29.0129 23.3131 29.0531 23.3188 29.0546C23.4868 29.0862 23.4355 29.2829 23.521 29.3432C23.6648 29.4451 23.7431 29.5887 23.8541 29.7107C23.9239 29.7868 23.9709 29.6835 24.0136 29.6418C24.0435 29.6131 24.1061 29.5686 24.015 29.5298C23.9424 29.4982 23.9153 29.4236 23.9253 29.3604C23.9509 29.1953 23.7459 29.1278 23.7687 28.9656C23.7701 28.957 23.7117 28.9354 23.6804 28.9254C23.4797 28.8665 23.5025 28.7028 23.501 28.5478C23.4996 28.4013 23.5452 28.2951 23.7046 28.2706C23.6747 28.2419 23.642 28.2146 23.6135 28.1831C23.5537 28.117 23.5181 28.1443 23.4811 28.2089C23.4299 28.2951 23.4711 28.3941 23.4341 28.4817C23.3387 28.4444 23.2547 28.3956 23.1949 28.308C23.1565 28.252 23.0967 28.206 23.0213 28.2419C22.9586 28.2706 22.933 28.3195 22.9145 28.3956C22.8732 28.5607 22.8817 28.7244 22.8945 28.8909Z" fill="#F08782"/>
<path d="M28.9025 36.0735C29.0776 36.0721 29.2128 35.9572 29.368 35.8998C29.4762 35.8596 29.573 35.7978 29.6969 35.805C29.8037 35.8108 29.8848 35.7418 29.9759 35.7002C30.1055 35.6169 30.2564 35.5968 30.3988 35.5509C30.5084 35.5164 30.6152 35.5437 30.6593 35.6672C30.7718 35.604 30.7618 35.4834 30.8458 35.4331C31.1405 35.4978 31.3612 35.3614 31.5619 35.169C31.6132 35.1245 31.6844 35.0886 31.71 35.0326C31.7484 34.9464 31.8794 34.9608 31.8808 34.8732C31.8823 34.8 31.7812 34.7641 31.7627 34.6822C31.7314 34.5444 31.6445 34.553 31.5263 34.5803C31.3185 34.6291 31.1263 34.721 30.9227 34.7827C30.4358 34.9306 29.9631 35.123 29.4762 35.2752C29.0804 35.3987 28.6989 35.5581 28.3045 35.6873C28.1693 35.7318 28.0411 35.8064 27.9201 35.884C27.856 35.9256 27.7151 36.0089 27.9301 36.0534C27.9742 36.062 27.9628 36.1036 27.9529 36.1381C27.9315 36.2113 27.8945 36.3047 27.9671 36.3477C28.0497 36.398 28.1963 36.3707 28.2305 36.3176C28.3971 36.052 28.6889 36.1783 28.9025 36.0735Z" fill="#F29452"/>
<path opacity="0.76" d="M15.1392 63.3648C14.2821 63.652 13.4251 63.9391 12.568 64.2277C11.6469 64.5364 11.2511 63.0705 12.168 62.7633C13.025 62.4761 13.8821 62.1889 14.7391 61.9004C15.6603 61.5917 16.0546 63.0576 15.1392 63.3648Z" fill="#F9C972"/>
<path d="M20.463 64.7159C21.2076 64.8939 21.9607 65.0389 22.7195 65.1337C23.1224 65.184 23.4727 65.4467 23.4727 65.8932C23.4727 66.2637 23.1267 66.703 22.7195 66.6528C21.8254 66.5408 20.9399 66.39 20.0615 66.1804C19.1204 65.955 19.5205 64.4905 20.463 64.7159Z" fill="#F9C972"/>
<path opacity="0.76" d="M15.4163 54.8909C15.6583 55.3862 15.9388 55.8572 16.2022 56.341C16.3417 56.5966 16.4727 56.855 16.5851 57.1235C16.5965 57.1522 16.662 57.3001 16.6079 57.1795C16.6962 57.3733 16.8229 57.4207 16.5225 57.2096C16.3958 57.1752 16.2691 57.1407 16.1424 57.1063C16.1509 57.1063 16.158 57.1048 16.1666 57.1048C17.1347 57.0575 17.1319 58.5751 16.1666 58.6224C15.8192 58.6397 15.5487 58.397 15.3878 58.1113C15.3138 57.9807 15.2611 57.8342 15.2027 57.6949C15.1856 57.6547 15.17 57.6131 15.1529 57.5729C15.2412 57.7682 15.1515 57.5858 15.1045 57.4925C14.7927 56.8708 14.4225 56.2821 14.1179 55.6561C13.9385 55.2886 14.0196 54.8349 14.3884 54.6181C14.7187 54.4228 15.2369 54.5219 15.4163 54.8909Z" fill="#FA98B7"/>
<path opacity="0.76" d="M20.3282 71.7143C19.8655 72.0086 19.4298 72.3403 18.9814 72.6547C18.7849 72.7926 18.5842 72.929 18.3763 73.0496C18.3165 73.084 18.2553 73.1156 18.1969 73.1501C18.019 73.2549 18.1129 73.2348 18.1884 73.0941C18.214 72.8988 18.2396 72.7036 18.2638 72.5097C18.2653 72.5183 18.2667 72.5255 18.2681 72.5341C18.3307 72.939 18.1656 73.3511 17.7428 73.4674C17.3854 73.5665 16.88 73.3454 16.8174 72.9376C16.7006 72.1809 17.2843 71.9598 17.8082 71.6238C18.409 71.2376 18.9671 70.7882 19.5708 70.4034C20.3908 69.8793 21.1468 71.1931 20.3282 71.7143Z" fill="#FA98B7"/>
<path opacity="0.76" d="M24.1474 72.0467C24.4663 71.4508 24.7852 70.855 25.1042 70.2577C25.564 69.3976 26.8639 70.1629 26.404 71.0244C26.0851 71.6202 25.7662 72.2161 25.4473 72.8134C24.986 73.6734 23.6861 72.9081 24.1474 72.0467Z" fill="#9B560B"/>
<path d="M35.871 24.6422C35.0139 24.9293 34.1569 25.2165 33.2998 25.5051C32.3787 25.8138 31.9829 24.3479 32.8998 24.0406C33.7568 23.7534 34.6139 23.4663 35.471 23.1777C36.3921 22.869 36.7879 24.3349 35.871 24.6422Z" fill="#F9C972"/>
<path opacity="0.76" d="M43.9724 48.5146C43.3203 47.8843 42.6697 47.2526 42.0177 46.6223C41.3172 45.9446 42.3835 44.8721 43.0826 45.5483C43.7346 46.1786 44.3853 46.8103 45.0373 47.4407C45.7364 48.1198 44.6714 49.1923 43.9724 48.5146Z" fill="#F9C972"/>
<path d="M8.52155 45.0045C9.26614 45.1825 10.0193 45.3275 10.7781 45.4223C11.181 45.4725 11.5312 45.7353 11.5312 46.1818C11.5312 46.5522 11.1853 46.9916 10.7781 46.9413C9.88403 46.8294 8.99849 46.6786 8.12007 46.469C7.17901 46.2421 7.57764 44.7791 8.52155 45.0045Z" fill="#FD2739"/>
<path opacity="0.76" d="M8.38994 52.8381C8.63197 53.3335 8.91243 53.8044 9.17581 54.2883C9.31533 54.5438 9.44631 54.8023 9.55879 55.0707C9.57017 55.0995 9.63567 55.2473 9.58156 55.1267C9.66983 55.3206 9.79654 55.3679 9.49614 55.1569C9.36943 55.1224 9.24273 55.088 9.11602 55.0535C9.12456 55.0535 9.13168 55.0521 9.14022 55.0521C10.1083 55.0047 10.1055 56.5223 9.14022 56.5697C8.79284 56.5869 8.52234 56.3443 8.36146 56.0585C8.28743 55.9279 8.23476 55.7814 8.17639 55.6422C8.1593 55.602 8.14364 55.5603 8.12656 55.5201C8.21482 55.7154 8.12513 55.5331 8.07815 55.4397C7.76636 54.8181 7.3962 54.2294 7.09154 53.6034C6.91215 53.2358 6.9933 52.7821 7.36204 52.5653C7.69233 52.3701 8.21055 52.4692 8.38994 52.8381Z" fill="#FA98B7"/>
<path opacity="0.76" d="M43.376 55.0965C42.9133 55.3908 42.4777 55.7225 42.0292 56.0369C41.8328 56.1748 41.632 56.3112 41.4242 56.4318C41.3644 56.4662 41.3031 56.4978 41.2448 56.5323C41.0668 56.6371 41.1608 56.617 41.2362 56.4763C41.2619 56.281 41.2875 56.0858 41.3117 55.8919C41.3131 55.9005 41.3145 55.9077 41.316 55.9163C41.3786 56.3212 41.2134 56.7333 40.7906 56.8496C40.4333 56.9487 39.9279 56.7275 39.8652 56.3198C39.7485 55.5631 40.3322 55.342 40.8561 55.0061C41.4569 54.6198 42.015 54.1704 42.6186 53.7856C43.4387 53.263 44.1947 54.5768 43.376 55.0965Z" fill="#FA98B7"/>
<path opacity="0.76" d="M33.7109 68.821C34.0298 68.2252 34.3487 67.6294 34.6676 67.0321C35.1275 66.1721 36.4273 66.9373 35.9675 67.7988C35.6486 68.3946 35.3297 68.9905 35.0107 69.5877C34.5509 70.4478 33.2496 69.6825 33.7109 68.821Z" fill="#F74622"/>
<path opacity="0.76" d="M26.9445 65.2544C26.2924 64.6241 25.6418 63.9923 24.9897 63.362C24.2893 62.6843 25.3556 61.6118 26.0547 62.288C26.7067 62.9184 27.3573 63.5501 28.0094 64.1804C28.7098 64.8595 27.6435 65.9321 26.9445 65.2544Z" fill="#CAD9DC"/>
<path opacity="0.76" d="M33.377 78.6415C32.9143 78.9358 32.4787 79.2675 32.0302 79.5819C31.8337 79.7198 31.633 79.8562 31.4251 79.9768C31.3653 80.0112 31.3041 80.0428 31.2457 80.0773C31.0678 80.1821 31.1617 80.162 31.2372 80.0213C31.2628 79.826 31.2885 79.6308 31.3127 79.4369C31.3141 79.4455 31.3155 79.4527 31.3169 79.4613C31.3796 79.8662 31.2144 80.2783 30.7916 80.3946C30.4342 80.4936 29.9288 80.2725 29.8662 79.8648C29.7494 79.1081 30.3332 78.887 30.8571 78.5511C31.4579 78.1648 32.016 77.7154 32.6196 77.3307C33.4397 76.808 34.1957 78.1203 33.377 78.6415Z" fill="#FA98B7"/>
<path opacity="0.76" d="M24.4249 83.6553C25.1695 83.8334 25.9226 83.9784 26.6814 84.0731C27.0843 84.1234 27.4346 84.3861 27.4346 84.8327C27.4346 85.2031 27.0886 85.6424 26.6814 85.5922C25.7874 85.4802 24.9018 85.3294 24.0234 85.1198C23.0823 84.8944 23.481 83.4299 24.4249 83.6553Z" fill="#FD2739"/>
<path opacity="0.76" d="M37.4932 61.8316C38.2378 62.0096 38.991 62.1547 39.7498 62.2494C40.1527 62.2997 40.5029 62.5624 40.5029 63.0089C40.5029 63.3793 40.157 63.8187 39.7498 63.7684C38.8557 63.6564 37.9702 63.5057 37.0917 63.2961C36.1507 63.0707 36.5493 61.6062 37.4932 61.8316Z" fill="#FD2739"/>
<path opacity="0.76" d="M11.7497 51.9131C11.0977 51.2828 10.447 50.651 9.79499 50.0207C9.09453 49.343 10.1609 48.2705 10.8599 48.9467C11.512 49.5771 12.1626 50.2088 12.8147 50.8391C13.5137 51.5168 12.4488 52.5893 11.7497 51.9131Z" fill="#CAD9DC"/>
<path opacity="0.76" d="M41.9538 62.1918C41.3018 61.5615 40.6512 60.9298 39.9991 60.2995C39.2986 59.6218 40.365 58.5493 41.064 59.2255C41.7161 59.8558 42.3667 60.4876 43.0188 61.1179C43.7178 61.7956 42.6529 62.8681 41.9538 62.1918Z" fill="#CAD9DC"/>
<path opacity="0.76" d="M22.3357 80.2968C21.6836 79.6665 21.033 79.0348 20.3809 78.4045C19.6805 77.7268 20.7468 76.6543 21.4459 77.3305C22.0979 77.9608 22.7485 78.5926 23.4006 79.2229C24.0996 79.902 23.0347 80.9745 22.3357 80.2968Z" fill="#CAD9DC"/>
</g>
<defs>
<clipPath id="clip0_301_310">
<rect width="53" height="94" fill="white" transform="matrix(-1 0 0 1 53 0)"/>
</clipPath>
</defs>
</svg>
