<svg width="72" height="72" viewBox="0 0 72 72" fill="none" xmlns="http://www.w3.org/2000/svg">
<g clip-path="url(#clip0_59_530)">
<path d="M57.375 36H50.625C50.625 27.9 44.1 21.375 36 21.375V14.625C47.8125 14.625 57.375 24.1875 57.375 36Z" fill="#F389A6"/>
<path d="M72 37.125H65.25C65.25 20.3625 51.6375 6.75 34.875 6.75V0C55.35 0 72 16.65 72 37.125Z" fill="#F389A6"/>
<path d="M2.13708 8.32503C-3.93792 17.4375 3.37458 36.5625 19.3496 52.65C35.3246 68.7375 54.5621 75.9375 63.6746 69.8625C64.0121 69.75 64.3496 69.525 64.5746 69.1875L70.7621 63C72.6746 61.0875 72.4496 57.825 70.1996 55.6875L59.2871 44.775C57.1496 42.6375 53.8871 42.4125 51.9746 44.2125L44.8871 51.3C44.2121 51.975 42.9746 52.0875 42.0746 51.4125C38.1371 48.7125 34.1996 45.3375 30.3746 41.625C26.5496 37.8 23.2871 33.8625 20.5871 29.925C19.9121 29.025 20.0246 27.7875 20.6996 27.1125L27.7871 20.025C29.6996 18.1125 29.4746 14.85 27.2246 12.7125L16.3121 1.80003C14.1746 -0.33747 10.9121 -0.56247 8.99958 1.23753L2.81208 7.42503C2.47458 7.65003 2.24958 7.98753 2.13708 8.32503Z" fill="#F389A6"/>
</g>
<defs>
<clipPath id="clip0_59_530">
<rect width="72" height="72" fill="white"/>
</clipPath>
</defs>
</svg>
