<svg width="63" height="63" viewBox="0 0 63 63" fill="none" xmlns="http://www.w3.org/2000/svg">
<path d="M31.5 63C48.897 63 63 48.897 63 31.5C63 14.103 48.897 0 31.5 0C14.103 0 0 14.103 0 31.5C0 48.897 14.103 63 31.5 63Z" fill="#F389A6"/>
<path d="M47.8531 27.8804C47.5299 27.902 47.2067 27.9235 46.8835 27.9235C43.3284 27.9235 40.0104 26.1352 38.0713 23.1619V39.3644C38.0713 45.9789 32.7064 51.3438 26.0918 51.3438C19.4772 51.3438 14.1123 45.9789 14.1123 39.3644C14.1123 32.7498 19.4772 27.3849 26.0918 27.3849C26.3503 27.3849 26.5873 27.4064 26.8243 27.428V33.3315C26.5873 33.31 26.3288 33.2669 26.0918 33.2669C22.7091 33.2669 19.9728 36.0032 19.9728 39.3859C19.9728 42.7686 22.7091 45.5049 26.0918 45.5049C29.4745 45.5049 32.4478 42.8332 32.4478 39.4721L32.5124 11.9365H38.1574C38.6961 16.9998 42.7683 20.9642 47.8531 21.3305V27.8804Z" fill="white"/>
</svg>
